<svg width="121" height="23" viewBox="0 0 121 23" fill="none" xmlns="http://www.w3.org/2000/svg">
<path d="M62.5762 14.2473L62.7711 14.1865C63.3262 14.0128 63.8401 13.758 64.3008 13.4251C65.5115 12.5391 66.1258 11.2796 66.1258 9.67549V9.12247C66.1258 7.8398 65.7035 6.74534 64.8678 5.87382C63.8785 4.85174 62.5437 4.33057 60.8988 4.33057H57.1218C56.5814 4.33057 56.0794 4.48981 55.6305 4.80252C54.9572 5.28895 54.6294 5.92594 54.6294 6.75692V18.576H57.1484V14.4703H59.6851L63.152 18.576H66.2793L62.5791 14.2502L62.5762 14.2473ZM57.1484 12.2148V6.5832H60.8959C61.2975 6.5832 61.6755 6.644 62.018 6.76271C63.0575 7.12464 63.5861 7.92088 63.5861 9.12247V9.67549C63.5861 10.1243 63.5034 10.5354 63.3381 10.8945C62.9128 11.7718 62.0919 12.2148 60.8959 12.2148H57.1484Z" fill="white"/>
<path d="M70.6117 16.3175V12.6519H77.1971V10.3993H70.6117V6.58027H77.8172L78.9925 4.32764H70.5851C70.0329 4.32764 69.5279 4.49268 69.079 4.81696C68.4027 5.30339 68.075 5.93749 68.075 6.7511V16.1438C68.075 16.6592 68.2374 17.1398 68.5593 17.5741C69.0701 18.243 69.7346 18.5702 70.5851 18.5702H78.9925L77.8172 16.3175H70.6117Z" fill="white"/>
<path d="M84.0214 4.32764H81.5024V18.5702H84.0214V12.6519H90.2938V18.5702H92.8335V4.32764H90.2938V10.3993H84.0214V4.32764Z" fill="white"/>
<path d="M103.816 6.73087C103.255 5.10075 102.399 4.30452 101.2 4.29004C100.004 4.30162 99.1414 5.10075 98.5685 6.73087L94.6025 18.5702H97.278L101.203 6.82642L103.736 14.4356H99.9476L99.2418 16.6621H104.478L105.127 18.5702H107.803L103.819 6.73087H103.816Z" fill="white"/>
<path d="M118.933 11.3375L118.747 11.2332L118.921 11.1116C118.951 11.0914 118.986 11.0566 119.027 11.0132C119.842 10.2604 120.253 9.31358 120.253 8.19595C120.253 7.38523 120.014 6.6469 119.547 5.99544C118.747 4.86333 117.507 4.29004 115.853 4.29004H112.067C111.527 4.29004 111.022 4.44929 110.573 4.76199C109.896 5.24842 109.569 5.8912 109.569 6.71929V18.5673H115.853C117.374 18.5673 118.626 18.1909 119.571 17.4468C120.519 16.7114 121 15.753 121 14.6035C121 14.4066 120.982 14.2039 120.947 13.9955C120.749 12.8547 120.07 11.96 118.93 11.3317L118.933 11.3375ZM112.093 6.55136H115.85C116.225 6.55136 116.567 6.63532 116.866 6.79747C117.471 7.12754 117.778 7.66319 117.778 8.38705C117.778 8.64474 117.725 8.90243 117.622 9.14564C117.32 9.86081 116.724 10.2227 115.85 10.2227H112.093V6.54846V6.55136ZM118.313 15.226V15.2318C117.87 15.947 117.043 16.3118 115.853 16.3118H112.096V12.5043H115.853C116.482 12.5043 117.034 12.6259 117.489 12.8634C118.18 13.2311 118.531 13.7551 118.531 14.4182C118.531 14.6961 118.457 14.9683 118.313 15.2289V15.226Z" fill="white"/>
<path d="M32.7558 14.2185L32.9507 14.1577C33.5059 13.9839 34.0227 13.7263 34.4834 13.3933C35.6971 12.5044 36.3113 11.242 36.3113 9.63504V9.07912C36.3113 7.79356 35.8861 6.6962 35.0504 5.82178C34.0581 4.79681 32.7204 4.27563 31.0696 4.27563H27.2837C26.7433 4.27563 26.2383 4.43488 25.7895 4.74759C25.1132 5.23402 24.7854 5.8768 24.7854 6.70489V18.5529H27.3103V14.4385H29.8529L33.3287 18.5529H36.4649L32.7528 14.2185H32.7558ZM27.3103 12.1772V6.53116H31.0666C31.4712 6.53116 31.8492 6.59196 32.1918 6.71068C33.2342 7.0755 33.7628 7.86884 33.7628 9.07623V9.63214C33.7628 10.0838 33.6801 10.495 33.5118 10.854C33.0865 11.7313 32.2626 12.1772 31.0637 12.1772H27.3073H27.3103Z" fill="#23978C"/>
<path d="M49.2282 7.98183C49.1574 5.94056 47.4239 4.30176 45.3036 4.30176H41.8868C39.7222 4.30176 37.9592 6.01295 37.9592 8.11501V8.80702C37.9592 10.8628 39.1198 11.7603 40.0914 12.1512C41.1309 12.5682 42.3652 12.5884 43.5612 12.6087C46.4582 12.6579 46.7742 12.9446 46.7742 14.0506V14.7426C46.7742 15.5302 46.1157 16.17 45.3036 16.17H41.8868C41.122 16.17 40.493 15.5997 40.4221 14.8758H37.9622C38.0331 16.9171 39.7665 18.5559 41.8868 18.5559H45.3036C47.4682 18.5559 49.2312 16.8447 49.2312 14.7426V14.0506C49.2312 11.9804 48.0677 11.077 47.0931 10.6832C46.0478 10.2634 44.8075 10.2402 43.6055 10.22C40.7322 10.1737 40.4192 9.8928 40.4192 8.80702V8.11501C40.4192 7.32746 41.0777 6.68758 41.8898 6.68758H45.3065C46.0714 6.68758 46.7004 7.25797 46.7683 7.98183H49.2282Z" fill="#23978C"/>
<path d="M18.4686 17.7508L16.115 20.0584C14.7093 21.4366 12.8223 22.256 10.8349 22.3052C8.38973 22.366 6.10108 21.315 4.56252 19.3954C3.70613 18.3269 3.16571 17.0414 3.00329 15.6921C2.72275 13.3411 3.52894 11.0826 5.20039 9.44383C5.20039 9.44383 5.22401 9.42066 5.23583 9.40619L8.52262 6.18359L10.7699 8.387C10.7699 8.387 8.97149 10.1503 8.02059 11.0826L7.48018 11.6125C6.66217 12.4145 6.16605 13.4887 6.12766 14.6237C6.08632 15.8601 6.55881 17.0298 7.44474 17.9013C8.29818 18.7352 9.42922 19.1956 10.6341 19.1956C11.0859 19.1956 11.5289 19.1319 11.9482 19.0045C12.6245 19.2245 13.3421 19.3374 14.0744 19.3374C14.0862 19.3374 14.0981 19.3374 14.1069 19.3374C15.7252 19.3288 17.252 18.7699 18.4657 17.7508H18.4686Z" fill="#8FCDB7"/>
<path d="M17.1516 14.6384L18.2737 15.7386L19.3959 16.8389L18.4686 17.748C17.2549 18.7672 15.7252 19.3289 14.1099 19.3347C14.0981 19.3347 14.0862 19.3347 14.0774 19.3347C13.345 19.3347 12.6274 19.2218 11.9512 19.0018C10.9707 18.6833 10.07 18.1447 9.31405 17.4093C8.82679 16.9344 8.55806 16.3032 8.55511 15.6286C8.55511 14.954 8.82089 14.3228 9.30519 13.845L11.9482 11.2536C13.7023 9.53666 13.7023 6.7397 11.9482 5.02272C10.197 3.30574 7.34434 3.30284 5.5902 5.02272L4.83421 5.76394C3.85379 6.72522 2.26797 8.28006 2.26797 8.28006L0 6.06217L3.28679 2.83958C3.28679 2.83958 3.31337 2.81641 3.32518 2.80483C4.78106 1.3745 6.71533 0.589844 8.77364 0.589844C9.80131 0.589844 10.7995 0.786732 11.7238 1.16024C12.6481 1.53375 13.4927 2.08677 14.2221 2.80194C15.678 4.22938 16.4783 6.12587 16.4783 8.14108C16.4783 10.1563 15.678 12.0557 14.2221 13.4802L12.0752 15.5852C12.6658 15.9818 13.3657 16.1932 14.0951 16.1903C15.046 16.1845 15.9378 15.8197 16.6052 15.1567L17.1516 14.6384Z" fill="#18A196"/>
</svg>
