<svg width="143" height="40" viewBox="0 0 143 40" fill="none" xmlns="http://www.w3.org/2000/svg">
<path d="M25.2908 6.82927C23.7649 2.27642 21.4134 0.0250156 18.1113 0C14.8343 0.0250156 12.4578 2.27642 10.8818 6.82927L0 40H7.3546L18.1113 7.10444L25.0657 28.4178H14.6592L12.7079 34.6467H27.0919L28.868 40H36.2226L25.2908 6.82927Z" fill="url(#paint0_linear_1357_1311)"/>
<path d="M97.1857 6.82927C95.6348 2.27642 93.2833 0.0250156 90.0063 0C86.7292 0.0250156 84.3527 2.27642 82.7767 6.82927L71.8949 39.975H79.2495L90.0313 7.07942L96.9856 28.3927H86.5791L84.6279 34.6216H99.0119L100.788 39.975H108.143L97.2108 6.82927H97.1857Z" fill="url(#paint1_linear_1357_1311)"/>
<path d="M142.064 10.3565C141.864 4.62791 137.111 0.0500488 131.282 0.0500488H121.901C115.947 0.0500488 111.119 4.85305 111.119 10.7317V12.6829C111.119 18.4365 114.296 20.9631 116.973 22.0388C119.825 23.2145 123.227 23.2646 126.504 23.3146C134.459 23.4397 135.31 24.2402 135.31 27.3421V29.2683C135.31 31.4697 133.508 33.2708 131.282 33.2708H121.901C119.8 33.2708 118.074 31.6698 117.874 29.6435H111.119C111.32 35.3721 116.073 39.95 121.901 39.95H131.282C137.236 39.95 142.064 35.172 142.064 29.2683V27.3421C142.064 21.5385 138.862 19.0119 136.185 17.9112C133.308 16.7355 129.906 16.6854 126.604 16.6104C118.724 16.4853 117.849 15.6848 117.849 12.6579V10.7067C117.849 8.50533 119.65 6.70421 121.876 6.70421H131.257C133.358 6.70421 135.084 8.30521 135.285 10.3315H142.039L142.064 10.3565Z" fill="url(#paint2_linear_1357_1311)"/>
<path d="M60.1876 39.95H68.2176L52.0325 17.1107L68.6929 0.0500488H59.6873L46.379 13.0332V0.0500488H39.4747V21.0632L39.4246 21.1132H39.4747V39.95H46.379V23.6398L47.3046 22.5641L60.1626 39.95H60.1876Z" fill="url(#paint3_linear_1357_1311)"/>
<defs>
<linearGradient id="paint0_linear_1357_1311" x1="18.1113" y1="0" x2="18.1113" y2="40" gradientUnits="userSpaceOnUse">
<stop stop-color="white"/>
<stop offset="1" stop-color="white" stop-opacity="0.75"/>
</linearGradient>
<linearGradient id="paint1_linear_1357_1311" x1="90.0188" y1="0" x2="90.0188" y2="39.975" gradientUnits="userSpaceOnUse">
<stop stop-color="white"/>
<stop offset="1" stop-color="white" stop-opacity="0.75"/>
</linearGradient>
<linearGradient id="paint2_linear_1357_1311" x1="126.592" y1="0.0500488" x2="126.592" y2="39.95" gradientUnits="userSpaceOnUse">
<stop stop-color="white"/>
<stop offset="1" stop-color="white" stop-opacity="0.75"/>
</linearGradient>
<linearGradient id="paint3_linear_1357_1311" x1="54.0588" y1="0.0500488" x2="54.0588" y2="39.95" gradientUnits="userSpaceOnUse">
<stop stop-color="white"/>
<stop offset="1" stop-color="white" stop-opacity="0.75"/>
</linearGradient>
</defs>
</svg>
