<svg width="359" height="41" viewBox="0 0 359 41" fill="none" xmlns="http://www.w3.org/2000/svg">
<path fill-rule="evenodd" clip-rule="evenodd" d="M323.873 10.3787C323.873 4.69274 319.255 0.0744934 313.594 0.0744934H303.811C298.125 0.0744934 293.532 4.69274 293.532 10.3787V29.3731C293.532 35.059 298.15 39.6772 303.811 39.6772H313.594C319.28 39.6772 323.873 35.059 323.873 29.3731V10.3787ZM317.492 11.9677C317.492 8.66543 314.811 5.98387 311.533 5.98387H305.872C302.57 5.98387 299.913 8.66543 299.913 11.9677V27.7592C299.913 31.0615 302.595 33.743 305.872 33.743H311.533C314.836 33.743 317.492 31.0615 317.492 27.7592V11.9677Z" fill="url(#paint0_linear_1357_1267)"/>
<path fill-rule="evenodd" clip-rule="evenodd" d="M223.166 33.3706H239.876V27.5854H246.133V32.7747C246.133 34.2893 245.686 35.6797 244.767 36.9212C243.402 38.7834 241.664 39.6772 239.379 39.6772H223.066C221.577 39.6772 220.186 39.2055 218.97 38.3116C217.132 36.946 216.238 35.1831 216.238 32.874V6.85289C216.238 4.5686 217.132 2.80572 218.97 1.4401C220.186 0.521421 221.577 0.0744934 223.066 0.0744934H239.379C241.639 0.0744934 243.402 0.968348 244.767 2.83055C245.661 4.07201 246.133 5.46245 246.133 6.97704V12.1664H239.876V6.38113H223.166V33.3706Z" fill="url(#paint1_linear_1357_1267)"/>
<path d="M123.178 33.4202V23.2154H141.13V16.9584H123.178V6.33148H142.818L145.996 0.0744934H123.079C121.589 0.0744934 120.199 0.521421 118.982 1.4401C117.145 2.80572 116.251 4.54377 116.251 6.82806V32.9485C116.251 34.3886 116.698 35.7294 117.567 36.9212C118.957 38.7834 120.77 39.6772 123.079 39.6772H145.996L142.793 33.4202H123.153H123.178Z" fill="url(#paint2_linear_1357_1267)"/>
<path d="M190.565 33.4202V23.2154H208.516V16.9584H190.565V6.33148H210.205L213.408 0.0744934H190.49C189.001 0.0744934 187.61 0.521421 186.394 1.4401C184.556 2.80572 183.662 4.54377 183.662 6.82806V32.9485C183.662 34.3886 184.109 35.7294 184.978 36.9212C186.369 38.7834 188.181 39.6772 190.49 39.6772H213.408L210.205 33.4202H190.565Z" fill="url(#paint3_linear_1357_1267)"/>
<path d="M290.652 0.0744934H283.799V39.702H290.652V0.0744934Z" fill="url(#paint4_linear_1357_1267)"/>
<path fill-rule="evenodd" clip-rule="evenodd" d="M333.606 13.5071V39.7021H326.754V3.05401C326.754 -0.273116 331.521 -0.819361 333.11 1.39045C333.11 1.39045 333.135 1.39045 333.159 1.39045L351.707 26.0459V0.0744938H358.585V36.6977C358.585 40.298 352.948 40.6456 351.881 37.7157L333.606 13.5071Z" fill="url(#paint5_linear_1357_1267)"/>
<path d="M6.87772 21.9988V6.30664H17.1074C18.1999 6.30664 19.2427 6.48045 20.1614 6.80323C22.9919 7.82123 24.4569 10.031 24.4569 13.383V14.9224C24.4569 16.1639 24.2334 17.306 23.7865 18.324C22.6195 20.7573 20.3849 21.9988 17.1074 21.9988H6.87772ZM21.7256 27.6598L22.247 27.486C23.7616 27.0143 25.1769 26.2942 26.4184 25.3507C29.7207 22.8926 31.4091 19.3669 31.4091 14.8976V13.3582C31.4091 9.78274 30.2421 6.72874 27.9826 4.29547C25.2762 1.4401 21.6263 0 17.1322 0H6.80323C5.3383 0 3.94786 0.446927 2.73122 1.31595C0.893855 2.68156 0 4.46927 0 6.7784V39.702H6.87772V28.2557H13.8051L23.2651 39.702H31.8063L21.7008 27.6598H21.7256Z" fill="url(#paint6_linear_1357_1267)"/>
<path d="M64.8541 10.6518C64.6555 4.96585 59.9379 0.422089 54.1527 0.422089H44.8417C38.9323 0.422089 34.1403 5.18931 34.1403 11.0242V12.9609C34.1403 18.6716 37.2936 21.1794 39.9503 22.247C42.7809 23.414 46.1577 23.4637 49.4103 23.5133C57.306 23.6375 58.1502 24.432 58.1502 27.5109V29.4227C58.1502 31.6077 56.3625 33.3954 54.1527 33.3954H44.8417C42.7561 33.3954 41.0428 31.8063 40.8442 29.7951H34.1403C34.3389 35.4811 39.0565 40.0248 44.8417 40.0248H54.1527C60.0621 40.0248 64.8541 35.2824 64.8541 29.4227V27.5109C64.8541 21.7505 61.676 19.2427 59.0192 18.1502C56.1639 16.9832 52.7871 16.9336 49.5096 16.8591C41.6884 16.7349 40.8194 15.9404 40.8194 12.9361V10.9994C40.8194 8.81439 42.6071 7.02668 44.8169 7.02668H54.1279C56.2135 7.02668 57.9268 8.61576 58.1254 10.6269H64.8293L64.8541 10.6518Z" fill="url(#paint7_linear_1357_1267)"/>
<path fill-rule="evenodd" clip-rule="evenodd" d="M112.849 10.7262C112.849 5.04034 108.231 0.422089 102.57 0.422089H82.5078C82.5574 4.32029 82.5574 35.8535 82.5078 40.0496H102.57C108.256 40.0496 112.849 35.4314 112.849 29.7455V10.7511V10.7262ZM106.468 12.3153C106.468 9.01303 103.786 6.33146 100.509 6.33146H88.8641V34.0906H100.509C103.811 34.0906 106.468 31.4091 106.468 28.1068V12.3153Z" fill="url(#paint8_linear_1357_1267)"/>
<path d="M161.39 6.92738V39.6772H168.243V6.92738H180.782V0.0744934H148.827V6.95221H161.366L161.39 6.92738Z" fill="url(#paint9_linear_1357_1267)"/>
<path d="M261.552 6.92738V39.6772H268.405V6.92738H280.944V0.0744934H248.988V6.95221H261.527L261.552 6.92738Z" fill="url(#paint10_linear_1357_1267)"/>
<defs>
<linearGradient id="paint0_linear_1357_1267" x1="308.703" y1="0.0744934" x2="308.703" y2="39.6772" gradientUnits="userSpaceOnUse">
<stop stop-color="white"/>
<stop offset="1" stop-color="white" stop-opacity="0.75"/>
</linearGradient>
<linearGradient id="paint1_linear_1357_1267" x1="231.186" y1="0.0744934" x2="231.186" y2="39.6772" gradientUnits="userSpaceOnUse">
<stop stop-color="white"/>
<stop offset="1" stop-color="white" stop-opacity="0.75"/>
</linearGradient>
<linearGradient id="paint2_linear_1357_1267" x1="131.124" y1="0.0744934" x2="131.124" y2="39.6772" gradientUnits="userSpaceOnUse">
<stop stop-color="white"/>
<stop offset="1" stop-color="white" stop-opacity="0.75"/>
</linearGradient>
<linearGradient id="paint3_linear_1357_1267" x1="198.535" y1="0.0744934" x2="198.535" y2="39.6772" gradientUnits="userSpaceOnUse">
<stop stop-color="white"/>
<stop offset="1" stop-color="white" stop-opacity="0.75"/>
</linearGradient>
<linearGradient id="paint4_linear_1357_1267" x1="287.225" y1="0.0744934" x2="287.225" y2="39.702" gradientUnits="userSpaceOnUse">
<stop stop-color="white"/>
<stop offset="1" stop-color="white" stop-opacity="0.75"/>
</linearGradient>
<linearGradient id="paint5_linear_1357_1267" x1="342.669" y1="0.0631714" x2="342.669" y2="39.7021" gradientUnits="userSpaceOnUse">
<stop stop-color="white"/>
<stop offset="1" stop-color="white" stop-opacity="0.75"/>
</linearGradient>
<linearGradient id="paint6_linear_1357_1267" x1="15.9032" y1="0" x2="15.9032" y2="39.702" gradientUnits="userSpaceOnUse">
<stop stop-color="white"/>
<stop offset="1" stop-color="white" stop-opacity="0.75"/>
</linearGradient>
<linearGradient id="paint7_linear_1357_1267" x1="49.4972" y1="0.422089" x2="49.4972" y2="40.0248" gradientUnits="userSpaceOnUse">
<stop stop-color="white"/>
<stop offset="1" stop-color="white" stop-opacity="0.75"/>
</linearGradient>
<linearGradient id="paint8_linear_1357_1267" x1="97.6785" y1="0.422089" x2="97.6785" y2="40.0496" gradientUnits="userSpaceOnUse">
<stop stop-color="white"/>
<stop offset="1" stop-color="white" stop-opacity="0.75"/>
</linearGradient>
<linearGradient id="paint9_linear_1357_1267" x1="164.804" y1="0.0744934" x2="164.804" y2="39.6772" gradientUnits="userSpaceOnUse">
<stop stop-color="white"/>
<stop offset="1" stop-color="white" stop-opacity="0.75"/>
</linearGradient>
<linearGradient id="paint10_linear_1357_1267" x1="264.966" y1="0.0744934" x2="264.966" y2="39.6772" gradientUnits="userSpaceOnUse">
<stop stop-color="white"/>
<stop offset="1" stop-color="white" stop-opacity="0.75"/>
</linearGradient>
</defs>
</svg>
