<svg width="405" height="40" viewBox="0 0 405 40" fill="none" xmlns="http://www.w3.org/2000/svg">
<path fill-rule="evenodd" clip-rule="evenodd" d="M181.531 10.4228C181.531 4.69708 176.88 0.0456543 171.154 0.0456543H161.291C155.566 0.0456543 150.914 4.69708 150.914 10.4228V29.5314C150.914 35.2571 155.566 39.9085 161.291 39.9085H171.154C176.88 39.9085 181.531 35.2571 181.531 29.5314V10.4228ZM175.109 12.0342C175.109 8.71994 172.411 6.0228 169.097 6.0228H163.383C160.069 6.0228 157.371 8.71994 157.371 12.0342V27.9199C157.371 31.2342 160.069 33.9314 163.383 33.9314H169.097C172.411 33.9314 175.109 31.2342 175.109 27.9199V12.0342Z" fill="url(#paint0_linear_1435_2039)"/>
<path fill-rule="evenodd" clip-rule="evenodd" d="M260.183 33.6571H277.143V27.8513H283.497V33.0742C283.497 34.5942 283.029 35.9999 282.114 37.2342C280.743 39.0971 278.96 39.9999 276.663 39.9999H260.114C258.594 39.9999 257.189 39.5313 255.954 38.6171C254.091 37.2456 253.177 35.4628 253.177 33.1656V6.9942C253.177 4.69705 254.08 2.9142 255.954 1.54277C257.189 0.628484 258.594 0.159912 260.114 0.159912H276.663C278.96 0.159912 280.743 1.06277 282.114 2.93705C283.029 4.17134 283.497 5.57705 283.497 7.09705V12.3199H277.143V6.5142H260.183V33.6571Z" fill="url(#paint1_linear_1435_2039)"/>
<path d="M123.451 22.1143V6.35427H133.737C134.846 6.35427 135.874 6.5257 136.811 6.85713C139.669 7.87427 141.109 10.0914 141.109 13.4514V15.0057C141.109 16.2628 140.88 17.4057 140.423 18.4114C139.257 20.8686 137.006 22.1028 133.726 22.1028H123.44L123.451 22.1143ZM138.343 27.8057L138.869 27.6343C140.389 27.1543 141.806 26.4343 143.063 25.4971C146.377 23.0171 148.069 19.4971 148.069 15.0057V13.4514C148.069 9.86284 146.903 6.79999 144.617 4.35427C141.909 1.50856 138.24 0.0571289 133.737 0.0571289H123.383C121.897 0.0571289 120.526 0.502843 119.291 1.37141C117.44 2.73141 116.549 4.51427 116.549 6.83427V39.8971H123.463V28.4114H130.411L139.92 39.8971H148.503L138.354 27.7943L138.343 27.8057Z" fill="url(#paint2_linear_1435_2039)"/>
<path d="M88.7771 22.2172V6.45716H99.0629C100.171 6.45716 101.2 6.62859 102.137 6.96002C104.994 7.97716 106.434 10.1943 106.434 13.5657V15.12C106.434 16.3772 106.206 17.52 105.749 18.5372C104.583 20.9943 102.331 22.2286 99.0514 22.2286H88.7657L88.7771 22.2172ZM95.7257 28.5143C98.7429 28.7086 101.634 28.6172 104.194 27.7257C105.714 27.2457 107.131 26.5257 108.389 25.5886C111.714 23.1086 113.394 19.5772 113.394 15.0972V13.5429C113.394 9.9543 112.229 6.89145 109.943 4.44573C107.223 1.58859 103.566 0.125732 99.0514 0.125732H88.6971C87.2114 0.125732 85.84 0.571447 84.6057 1.44002C82.7543 2.80002 81.8629 4.58287 81.8629 6.90287V39.9657H88.7771V28.48H95.7371L95.7257 28.5143Z" fill="url(#paint3_linear_1435_2039)"/>
<path d="M379.634 22.2172V6.45716H389.92C391.029 6.45716 392.057 6.62859 392.994 6.96002C395.851 7.97716 397.291 10.1943 397.291 13.5657V15.12C397.291 16.3772 397.063 17.52 396.606 18.5372C395.44 20.9943 393.189 22.2286 389.909 22.2286H379.623L379.634 22.2172ZM386.583 28.5143C389.6 28.7086 392.491 28.6172 395.051 27.7257C396.571 27.2457 397.989 26.5257 399.246 25.5886C402.571 23.1086 404.251 19.5772 404.251 15.0972V13.5429C404.251 9.9543 403.086 6.89145 400.8 4.44573C398.08 1.58859 394.423 0.125732 389.909 0.125732H379.554C378.069 0.125732 376.697 0.571447 375.463 1.44002C373.611 2.80002 372.72 4.58287 372.72 6.90287V39.9657H379.634V28.48H386.594L386.583 28.5143Z" fill="url(#paint4_linear_1435_2039)"/>
<path d="M196.949 7.06277V39.9999H203.863V7.06277H216.491V0.159912H184.331V7.0742H196.96L196.949 7.06277Z" fill="url(#paint5_linear_1435_2039)"/>
<path d="M300.217 7.06277V39.9999H307.131V7.06277H319.76V0.159912H287.6V7.0742H300.229L300.217 7.06277Z" fill="url(#paint6_linear_1435_2039)"/>
<path d="M330.537 0.159912H323.623V40.0113H330.537V23.4513H347.749V40.0113H354.709V0.159912H347.749V17.1428H330.537V0.159912Z" fill="url(#paint7_linear_1435_2039)"/>
<path d="M367.177 0.0571289H360.263V39.9086H367.177V0.0571289Z" fill="url(#paint8_linear_1435_2039)"/>
<path d="M226.457 33.7027V23.4513H244.526V17.1427H226.457V6.45701H246.217L249.44 0.148438H226.377C224.869 0.148438 223.474 0.60558 222.24 1.51987C220.389 2.87987 219.486 4.65129 219.486 6.93701V33.2227C219.486 34.6627 219.931 36.0113 220.811 37.2227C222.217 39.097 224.034 40.0113 226.366 40.0113H249.429L246.206 33.7027H226.446H226.457Z" fill="url(#paint9_linear_1435_2039)"/>
<path d="M21.8629 27.8171L22.3886 27.6457C23.9086 27.1657 25.3257 26.4457 26.5943 25.5085C29.92 23.0285 31.6114 19.4857 31.6114 14.9942V13.44C31.6114 9.83995 30.4457 6.7771 28.1486 4.31995C25.4286 1.45138 21.7486 -0.0114746 17.2343 -0.0114746H6.85714C5.37143 -0.0114746 3.98857 0.43424 2.75429 1.31424C0.902857 2.68567 0 4.47995 0 6.79995V39.9542H6.92571V28.4457H13.8971L23.4286 39.9542H32.0343L21.8514 27.8285L21.8629 27.8171ZM6.92571 22.1142V6.31995H17.2343C18.3429 6.31995 19.3829 6.49138 20.32 6.82281C23.1771 7.83995 24.6286 10.0685 24.6286 13.44V14.9942C24.6286 16.2514 24.4 17.4057 23.9429 18.4114C22.7771 20.8685 20.5143 22.1142 17.2343 22.1142H6.92571Z" fill="url(#paint10_linear_1435_2039)"/>
<path d="M67.0514 10.377C66.8457 4.66269 62.1029 0.079834 56.2857 0.079834H46.9143C40.9714 0.079834 36.1486 4.86841 36.1486 10.7541V12.697C36.1486 18.4455 39.3257 20.9598 42 22.0456C44.8457 23.2113 48.24 23.2684 51.52 23.3256C59.4629 23.4627 60.3314 24.2627 60.3314 27.3598V29.2913C60.3314 31.497 58.5257 33.2798 56.2971 33.2798H46.9257C44.8343 33.2798 43.0971 31.6913 42.9143 29.657H36.16C36.3543 35.3713 41.1086 39.9541 46.9257 39.9541H56.2971C62.24 39.9541 67.0629 35.1656 67.0629 29.2798V27.3484C67.0629 21.5541 63.8743 19.0284 61.1886 17.9313C58.32 16.7541 54.9143 16.697 51.6229 16.6398C43.7371 16.5027 42.88 15.7255 42.88 12.6855V10.7427C42.88 8.53698 44.6857 6.75412 46.9143 6.75412H56.2857C58.3771 6.75412 60.1143 8.34269 60.2971 10.377H67.0514Z" fill="url(#paint11_linear_1435_2039)"/>
<defs>
<linearGradient id="paint0_linear_1435_2039" x1="166.223" y1="0.0456543" x2="166.223" y2="39.9085" gradientUnits="userSpaceOnUse">
<stop stop-color="white"/>
<stop offset="1" stop-color="white" stop-opacity="0.75"/>
</linearGradient>
<linearGradient id="paint1_linear_1435_2039" x1="268.337" y1="0.159912" x2="268.337" y2="39.9999" gradientUnits="userSpaceOnUse">
<stop stop-color="white"/>
<stop offset="1" stop-color="white" stop-opacity="0.75"/>
</linearGradient>
<linearGradient id="paint2_linear_1435_2039" x1="132.526" y1="0.0571289" x2="132.526" y2="39.8971" gradientUnits="userSpaceOnUse">
<stop stop-color="white"/>
<stop offset="1" stop-color="white" stop-opacity="0.75"/>
</linearGradient>
<linearGradient id="paint3_linear_1435_2039" x1="97.6286" y1="0.125732" x2="97.6286" y2="39.9657" gradientUnits="userSpaceOnUse">
<stop stop-color="white"/>
<stop offset="1" stop-color="white" stop-opacity="0.75"/>
</linearGradient>
<linearGradient id="paint4_linear_1435_2039" x1="388.486" y1="0.125732" x2="388.486" y2="39.9657" gradientUnits="userSpaceOnUse">
<stop stop-color="white"/>
<stop offset="1" stop-color="white" stop-opacity="0.75"/>
</linearGradient>
<linearGradient id="paint5_linear_1435_2039" x1="200.411" y1="0.159912" x2="200.411" y2="39.9999" gradientUnits="userSpaceOnUse">
<stop stop-color="white"/>
<stop offset="1" stop-color="white" stop-opacity="0.75"/>
</linearGradient>
<linearGradient id="paint6_linear_1435_2039" x1="303.68" y1="0.159912" x2="303.68" y2="39.9999" gradientUnits="userSpaceOnUse">
<stop stop-color="white"/>
<stop offset="1" stop-color="white" stop-opacity="0.75"/>
</linearGradient>
<linearGradient id="paint7_linear_1435_2039" x1="339.166" y1="0.159912" x2="339.166" y2="40.0113" gradientUnits="userSpaceOnUse">
<stop stop-color="white"/>
<stop offset="1" stop-color="white" stop-opacity="0.75"/>
</linearGradient>
<linearGradient id="paint8_linear_1435_2039" x1="363.72" y1="0.0571289" x2="363.72" y2="39.9086" gradientUnits="userSpaceOnUse">
<stop stop-color="white"/>
<stop offset="1" stop-color="white" stop-opacity="0.75"/>
</linearGradient>
<linearGradient id="paint9_linear_1435_2039" x1="234.463" y1="0.148437" x2="234.463" y2="40.0113" gradientUnits="userSpaceOnUse">
<stop stop-color="white"/>
<stop offset="1" stop-color="white" stop-opacity="0.75"/>
</linearGradient>
<linearGradient id="paint10_linear_1435_2039" x1="16.0171" y1="-0.0114746" x2="16.0171" y2="39.9542" gradientUnits="userSpaceOnUse">
<stop stop-color="white"/>
<stop offset="1" stop-color="white" stop-opacity="0.75"/>
</linearGradient>
<linearGradient id="paint11_linear_1435_2039" x1="51.6057" y1="0.079834" x2="51.6057" y2="39.9541" gradientUnits="userSpaceOnUse">
<stop stop-color="white"/>
<stop offset="1" stop-color="white" stop-opacity="0.75"/>
</linearGradient>
</defs>
</svg>
