<svg width="169" height="34" viewBox="0 0 169 34" fill="none" xmlns="http://www.w3.org/2000/svg">
<path d="M128.283 7.69709V39.7269H135.138V7.69709H147.68V0.968353H115.715V7.69709H128.258H128.283Z" fill="url(#paint0_linear_1355_1229)"/>
<path d="M159.428 0.968353H152.573V39.7021H159.428V0.968353Z" fill="url(#paint1_linear_1355_1229)"/>
<path d="M6.87982 21.9988V6.30664H17.1126C18.2055 6.30664 19.2486 6.48045 20.1676 6.80323C22.999 7.82123 24.4644 10.031 24.4644 13.383V14.9224C24.4644 16.1639 24.2408 17.306 23.7938 18.324C22.6264 20.7573 20.3911 21.9988 17.1126 21.9988H6.87982ZM21.7323 27.6598L22.2539 27.486C23.7689 27.0143 25.1846 26.2942 26.4265 25.3507C29.7298 22.8926 31.4187 19.3669 31.4187 14.8976V13.3582C31.4187 9.78274 30.2514 6.72874 27.9912 4.29547C25.284 1.4401 21.6329 0 17.1375 0H6.80531C5.33994 0 3.94907 0.446927 2.73206 1.31595C0.894129 2.68156 0 4.46927 0 6.7784V39.702H6.87982V28.2557H13.8093L23.2722 39.702H31.8161L21.7075 27.6598H21.7323Z" fill="url(#paint2_linear_1355_1229)"/>
<path d="M64.874 10.6518C64.6753 4.96585 59.9563 0.422089 54.1693 0.422089H44.8555C38.9443 0.422089 34.1507 5.18931 34.1507 11.0242V12.9609C34.1507 18.6716 37.305 21.1794 39.9626 22.247C42.794 23.414 46.1718 23.4637 49.4254 23.5133C57.3236 23.6375 58.168 24.432 58.168 27.5109V29.4227C58.168 31.6077 56.3798 33.3954 54.1693 33.3954H44.8555C42.7692 33.3954 41.0554 31.8063 40.8567 29.7951H34.1507C34.3494 35.4811 39.0685 40.0248 44.8555 40.0248H54.1693C60.0805 40.0248 64.874 35.2824 64.874 29.4227V27.5109C64.874 21.7505 61.6949 19.2427 59.0373 18.1502C56.1811 16.9832 52.8033 16.9336 49.5248 16.8591C41.7012 16.7349 40.8319 15.9404 40.8319 12.9361V10.9994C40.8319 8.81439 42.6201 7.02668 44.8306 7.02668H54.1445C56.2308 7.02668 57.9445 8.61576 58.1432 10.6269H64.8492L64.874 10.6518Z" fill="url(#paint3_linear_1355_1229)"/>
<path d="M113.058 10.6518C112.859 4.96585 108.14 0.422089 102.353 0.422089H93.0391C87.1279 0.422089 82.3344 5.18931 82.3344 11.0242V12.9609C82.3344 18.6716 85.4886 21.1794 88.1462 22.247C90.9776 23.414 94.3554 23.4637 97.609 23.5133C105.507 23.6375 106.352 24.432 106.352 27.5109V29.4227C106.352 31.6077 104.563 33.3954 102.353 33.3954H93.0391C90.9528 33.3954 89.239 31.8063 89.0403 29.7951H82.3344C82.533 35.4811 87.2521 40.0248 93.0391 40.0248H102.353C108.264 40.0248 113.058 35.2824 113.058 29.4227V27.5109C113.058 21.7505 109.878 19.2427 107.221 18.1502C104.365 16.9832 100.987 16.9336 97.7084 16.8591C89.8848 16.7349 89.0155 15.9404 89.0155 12.9361V10.9994C89.0155 8.81439 90.8037 7.02668 93.0142 7.02668H102.328C104.414 7.02668 106.128 8.61576 106.327 10.6269H113.033L113.058 10.6518Z" fill="url(#paint4_linear_1355_1229)"/>
<path d="M181.583 31.4835L190.574 3.8982C191.84 -1.66893e-06 197.478 -1.66893e-06 198.298 3.8982V39.7269H191.443V19.0192L187.643 31.8063C186.327 37.095 184.364 39.6772 181.607 39.7269C178.875 39.6772 176.888 37.095 175.572 31.8063L171.772 19.0192V39.7269H164.917V3.8982C165.737 -1.66893e-06 171.375 -1.66893e-06 172.641 3.8982L181.632 31.4835H181.583Z" fill="url(#paint5_linear_1355_1229)"/>
<defs>
<linearGradient id="paint0_linear_1355_1229" x1="131.698" y1="0.968353" x2="131.698" y2="39.7269" gradientUnits="userSpaceOnUse">
<stop stop-color="white"/>
<stop offset="1" stop-color="white" stop-opacity="0.75"/>
</linearGradient>
<linearGradient id="paint1_linear_1355_1229" x1="156.001" y1="0.968353" x2="156.001" y2="39.7021" gradientUnits="userSpaceOnUse">
<stop stop-color="white"/>
<stop offset="1" stop-color="white" stop-opacity="0.75"/>
</linearGradient>
<linearGradient id="paint2_linear_1355_1229" x1="15.908" y1="0" x2="15.908" y2="39.702" gradientUnits="userSpaceOnUse">
<stop stop-color="white"/>
<stop offset="1" stop-color="white" stop-opacity="0.75"/>
</linearGradient>
<linearGradient id="paint3_linear_1355_1229" x1="49.5124" y1="0.422089" x2="49.5124" y2="40.0248" gradientUnits="userSpaceOnUse">
<stop stop-color="white"/>
<stop offset="1" stop-color="white" stop-opacity="0.75"/>
</linearGradient>
<linearGradient id="paint4_linear_1355_1229" x1="97.696" y1="0.422089" x2="97.696" y2="40.0248" gradientUnits="userSpaceOnUse">
<stop stop-color="white"/>
<stop offset="1" stop-color="white" stop-opacity="0.75"/>
</linearGradient>
<linearGradient id="paint5_linear_1355_1229" x1="181.607" y1="0.974548" x2="181.607" y2="39.7269" gradientUnits="userSpaceOnUse">
<stop stop-color="white"/>
<stop offset="1" stop-color="white" stop-opacity="0.75"/>
</linearGradient>
</defs>
</svg>
