<?xml version="1.0" encoding="UTF-8"?>
<svg id="Layer_2" data-name="Layer 2" xmlns="http://www.w3.org/2000/svg" viewBox="0 0 409.75 75.01">
  <defs>
    <style>
      .cls-1 {
        fill: #18a196;
      }

      .cls-1, .cls-2, .cls-3, .cls-4 {
        stroke-width: 0px;
      }

      .cls-2 {
        fill: #23978c;
      }

      .cls-3 {
        fill: #8fcdb7;
      }

      .cls-4 {
        fill: #fff;
      }
    </style>
  </defs>
  <g id="_레이어_2" data-name="레이어 2">
    <g>
      <g>
        <g>
          <path class="cls-4" d="M211.9,47.17l.66-.21c1.88-.6,3.62-1.48,5.18-2.63,4.1-3.06,6.18-7.41,6.18-12.95v-1.91c0-4.43-1.43-8.21-4.26-11.22-3.35-3.53-7.87-5.33-13.44-5.33h-12.79c-1.83,0-3.53.55-5.05,1.63-2.28,1.68-3.39,3.88-3.39,6.75v40.82h8.53v-14.18h8.59l11.74,14.18h10.59l-12.53-14.94ZM193.52,40.15v-19.45h12.69c1.36,0,2.64.21,3.8.62,3.52,1.25,5.31,4,5.31,8.15v1.91c0,1.55-.28,2.97-.84,4.21-1.44,3.03-4.22,4.56-8.27,4.56h-12.69Z"/>
          <path class="cls-4" d="M239.11,54.32v-12.66h22.3v-7.78h-22.3v-13.19h24.4l3.98-7.78h-28.47c-1.87,0-3.58.57-5.1,1.69-2.29,1.68-3.4,3.87-3.4,6.68v32.44c0,1.78.55,3.44,1.64,4.94,1.73,2.31,3.98,3.44,6.86,3.44h28.47l-3.98-7.78h-24.4Z"/>
          <polygon class="cls-4" points="284.52 12.91 275.99 12.91 275.99 62.1 284.52 62.1 284.52 41.66 305.76 41.66 305.76 62.1 314.36 62.1 314.36 12.91 305.76 12.91 305.76 33.88 284.52 33.88 284.52 12.91"/>
          <path class="cls-4" d="M351.55,21.21c-1.9-5.63-4.8-8.38-8.86-8.43-4.05.04-6.97,2.8-8.91,8.43l-13.43,40.89h9.06l13.29-40.56,8.58,26.28h-12.83l-2.39,7.69h17.73l2.2,6.59h9.06l-13.49-40.89Z"/>
          <path class="cls-4" d="M402.74,37.12l-.63-.36.59-.42c.1-.07.22-.19.36-.34,2.76-2.6,4.15-5.87,4.15-9.73,0-2.8-.81-5.35-2.39-7.6-2.71-3.91-6.91-5.89-12.51-5.89h-12.82c-1.83,0-3.54.55-5.06,1.63-2.29,1.68-3.4,3.9-3.4,6.76v40.92h21.28c5.15,0,9.39-1.3,12.59-3.87,3.21-2.54,4.84-5.85,4.84-9.82,0-.68-.06-1.38-.18-2.1-.67-3.94-2.97-7.03-6.83-9.2ZM379.58,20.59h12.72c1.27,0,2.43.29,3.44.85,2.05,1.14,3.09,2.99,3.09,5.49,0,.89-.18,1.78-.53,2.62-1.02,2.47-3.04,3.72-6,3.72h-12.72v-12.69ZM400.64,50.55v.02c-1.5,2.47-4.3,3.73-8.33,3.73h-12.72v-13.15h12.72c2.13,0,4,.42,5.54,1.24,2.34,1.27,3.53,3.08,3.53,5.37,0,.96-.25,1.9-.74,2.8Z"/>
        </g>
        <g>
          <path class="cls-2" d="M110.92,47.07l.66-.21c1.88-.6,3.63-1.49,5.19-2.64,4.11-3.07,6.19-7.43,6.19-12.98v-1.92c0-4.44-1.44-8.23-4.27-11.25-3.36-3.54-7.89-5.34-13.48-5.34h-12.82c-1.83,0-3.54.55-5.06,1.63-2.29,1.68-3.4,3.9-3.4,6.76v40.92h8.55v-14.21h8.61l11.77,14.21h10.62l-12.57-14.97ZM92.48,40.02v-19.5h12.72c1.37,0,2.65.21,3.81.62,3.53,1.26,5.32,4,5.32,8.17v1.92c0,1.56-.28,2.98-.85,4.22-1.44,3.03-4.23,4.57-8.29,4.57h-12.72Z"/>
          <path class="cls-2" d="M166.7,25.53c-.24-7.05-6.11-12.71-13.29-12.71h-11.57c-7.33,0-13.3,5.91-13.3,13.17v2.39c0,7.1,3.93,10.2,7.22,11.55,3.52,1.44,7.7,1.51,11.75,1.58,9.81.17,10.88,1.16,10.88,4.98v2.39c0,2.72-2.23,4.93-4.98,4.93h-11.57c-2.59,0-4.72-1.97-4.96-4.47h-8.33c.24,7.05,6.11,12.71,13.29,12.71h11.57c7.33,0,13.3-5.91,13.3-13.17v-2.39c0-7.15-3.94-10.27-7.24-11.63-3.54-1.45-7.74-1.53-11.81-1.6-9.73-.16-10.79-1.13-10.79-4.88v-2.39c0-2.72,2.23-4.93,4.98-4.93h11.57c2.59,0,4.72,1.97,4.95,4.47h8.33Z"/>
        </g>
      </g>
      <g>
        <path class="cls-3" d="M62.54,59.27l-7.97,7.97c-4.76,4.76-11.15,7.59-17.88,7.76-8.28.21-16.03-3.42-21.24-10.05-2.9-3.69-4.73-8.13-5.28-12.79-.95-8.12,1.78-15.92,7.44-21.58h0s.08-.08.12-.13l11.13-11.13,7.61,7.61s-6.09,6.09-9.31,9.31l-1.83,1.83c-2.77,2.77-4.45,6.48-4.58,10.4-.14,4.27,1.46,8.31,4.46,11.32,2.89,2.88,6.72,4.47,10.8,4.47,1.53,0,3.03-.22,4.45-.66h0c2.29.76,4.72,1.15,7.2,1.15.04,0,.08,0,.11,0,5.48-.03,10.65-1.96,14.76-5.48Z"/>
        <path class="cls-1" d="M58.08,48.52l3.8,3.8,3.8,3.8-3.14,3.14c-4.11,3.52-9.29,5.46-14.76,5.48-.04,0-.08,0-.11,0-2.48,0-4.91-.39-7.2-1.15h0c-3.32-1.1-6.37-2.96-8.93-5.5-1.65-1.64-2.56-3.82-2.57-6.15,0-2.33.9-4.51,2.54-6.16l8.95-8.95c5.94-5.93,5.94-15.59,0-21.52-5.93-5.93-15.59-5.94-21.53,0h0s0,0,0,0l-2.56,2.56c-3.32,3.32-8.69,8.69-8.69,8.69L0,18.9,11.13,7.77s.09-.08.13-.12h0C16.19,2.71,22.74,0,29.71,0c3.48,0,6.86.68,9.99,1.97,3.13,1.29,5.99,3.2,8.46,5.67,4.93,4.93,7.64,11.48,7.64,18.44s-2.71,13.52-7.64,18.44l-7.27,7.27c2,1.37,4.37,2.1,6.84,2.09,3.22-.02,6.24-1.28,8.5-3.57l1.85-1.79Z"/>
      </g>
    </g>
  </g>
</svg>