<?xml version="1.0" encoding="UTF-8"?>
<svg id="_레이어_2" data-name="레이어 2" xmlns="http://www.w3.org/2000/svg" viewBox="0 0 56.79 15.99">
  <defs>
    <style>
      .cls-1 {
        fill: #ededed;
        stroke-width: 0px;
      }
    </style>
  </defs>
  <g id="_레이어_1-2" data-name="레이어 1">
    <g>
      <path class="cls-1" d="M10.11,2.73C9.5.91,8.56.01,7.24,0c-1.31.01-2.26.91-2.89,2.73L0,15.99h2.94L7.24,2.84l2.78,8.52h-4.16l-.78,2.49h5.75l.71,2.14h2.94L10.11,2.73Z"/>
      <path class="cls-1" d="M38.85,2.73c-.62-1.82-1.56-2.72-2.87-2.73-1.31.01-2.26.91-2.89,2.73l-4.35,13.25h2.94l4.31-13.15,2.78,8.52h-4.16l-.78,2.49h5.75l.71,2.14h2.94l-4.37-13.25Z"/>
      <path class="cls-1" d="M56.79,4.14C56.71,1.85,54.81.02,52.48.02h-3.75c-2.38,0-4.31,1.92-4.31,4.27v.78c0,2.3,1.27,3.31,2.34,3.74,1.14.47,2.5.49,3.81.51,3.18.05,3.52.37,3.52,1.61v.77c0,.88-.72,1.6-1.61,1.6h-3.75c-.84,0-1.53-.64-1.61-1.45h-2.7c.08,2.29,1.98,4.12,4.31,4.12h3.75c2.38,0,4.31-1.91,4.31-4.27v-.77c0-2.32-1.28-3.33-2.35-3.77-1.15-.47-2.51-.49-3.83-.52-3.15-.05-3.5-.37-3.5-1.58v-.78c0-.88.72-1.6,1.61-1.6h3.75c.84,0,1.53.64,1.61,1.45h2.7Z"/>
      <path class="cls-1" d="M24.06,15.97h3.21l-6.47-9.13L27.46.02h-3.6l-5.32,5.19V.02h-2.76v8.4l-.02.02h.02v7.53h2.76v-6.52l.37-.43,5.14,6.95Z"/>
    </g>
  </g>
</svg>