<?xml version="1.0" encoding="UTF-8"?>
<svg id="_레이어_2" data-name="레이어 2" xmlns="http://www.w3.org/2000/svg" viewBox="0 0 144.41 16.11">
  <defs>
    <style>
      .cls-1 {
        fill-rule: evenodd;
      }

      .cls-1, .cls-2 {
        fill: #ededed;
        stroke-width: 0px;
      }
    </style>
  </defs>
  <g id="_레이어_1-2" data-name="레이어 1">
    <g>
      <path class="cls-1" d="M130.44,4.17c0-2.29-1.86-4.15-4.14-4.15h-3.94c-2.29,0-4.14,1.86-4.14,4.15v7.65c0,2.29,1.86,4.15,4.14,4.15h3.94c2.29,0,4.14-1.86,4.14-4.15v-7.65ZM127.87,4.81c0-1.33-1.08-2.41-2.4-2.41h-2.28c-1.33,0-2.4,1.08-2.4,2.41v6.36c0,1.33,1.08,2.41,2.4,2.41h2.28c1.33,0,2.4-1.08,2.4-2.41v-6.36Z"/>
      <path class="cls-1" d="M89.88,13.43h6.73v-2.33h2.52v2.09c0,.61-.18,1.17-.55,1.67-.55.75-1.25,1.11-2.17,1.11h-6.57c-.6,0-1.16-.19-1.65-.55-.74-.55-1.1-1.26-1.1-2.19V2.75c0-.92.36-1.63,1.1-2.18.49-.37,1.05-.55,1.65-.55h6.57c.91,0,1.62.36,2.17,1.11.36.5.55,1.06.55,1.67v2.09h-2.52v-2.33h-6.73v10.87Z"/>
      <path class="cls-2" d="M49.61,13.45v-4.11h7.23v-2.52h-7.23V2.54h7.91L58.8.02h-9.23c-.6,0-1.16.18-1.65.55-.74.55-1.1,1.25-1.1,2.17v10.52c0,.58.18,1.12.53,1.6.56.75,1.29,1.11,2.22,1.11h9.23l-1.29-2.52h-7.91Z"/>
      <path class="cls-2" d="M76.75,13.45v-4.11h7.23v-2.52h-7.23V2.54h7.91L85.95.02h-9.23c-.6,0-1.16.18-1.65.55-.74.55-1.1,1.25-1.1,2.17v10.52c0,.58.18,1.12.53,1.6.56.75,1.29,1.11,2.22,1.11h9.23l-1.29-2.52h-7.91Z"/>
      <rect class="cls-2" x="114.3" y=".02" width="2.76" height="15.96"/>
      <path class="cls-1" d="M134.36,5.43v10.55h-2.76V1.22c0-1.34,1.92-1.56,2.56-.67,0,0,.01,0,.02,0l7.47,9.93V.02h2.77v14.75c0,1.45-2.27,1.59-2.7.41l-7.36-9.75Z"/>
      <path class="cls-2" d="M2.77,8.85V2.53h4.12c.44,0,.86.07,1.23.2,1.14.41,1.73,1.3,1.73,2.65v.62c0,.5-.09.96-.27,1.37-.47.98-1.37,1.48-2.69,1.48H2.77ZM8.75,11.13l.21-.07c.61-.19,1.18-.48,1.68-.86,1.33-.99,2.01-2.41,2.01-4.21v-.62c0-1.44-.47-2.67-1.38-3.65-1.09-1.15-2.56-1.73-4.37-1.73H2.74c-.59,0-1.15.18-1.64.53C.36,1.07,0,1.79,0,2.72v13.26h2.77v-4.61h2.79l3.81,4.61h3.44l-4.07-4.85Z"/>
      <path class="cls-2" d="M26.12,4.28c-.08-2.29-1.98-4.12-4.31-4.12h-3.75c-2.38,0-4.31,1.92-4.31,4.27v.78c0,2.3,1.27,3.31,2.34,3.74,1.14.47,2.5.49,3.81.51,3.18.05,3.52.37,3.52,1.61v.77c0,.88-.72,1.6-1.61,1.6h-3.75c-.84,0-1.53-.64-1.61-1.45h-2.7c.08,2.29,1.98,4.12,4.31,4.12h3.75c2.38,0,4.31-1.91,4.31-4.27v-.77c0-2.32-1.28-3.33-2.35-3.77-1.15-.47-2.51-.49-3.83-.52-3.15-.05-3.5-.37-3.5-1.58v-.78c0-.88.72-1.6,1.61-1.6h3.75c.84,0,1.53.64,1.61,1.45h2.7Z"/>
      <path class="cls-1" d="M45.45,4.31c0-2.29-1.86-4.15-4.14-4.15h-8.08c.02,1.57.02,14.27,0,15.96h8.08c2.29,0,4.14-1.86,4.14-4.15v-7.65ZM42.88,4.95c0-1.33-1.08-2.41-2.4-2.41h-4.69v11.18h4.69c1.33,0,2.4-1.08,2.4-2.41v-6.36Z"/>
      <path class="cls-2" d="M65,2.78v13.19h2.76V2.78h5.05V.02h-12.87v2.77h5.05Z"/>
      <path class="cls-2" d="M105.34,2.78v13.19h2.76V2.78h5.05V.02h-12.87v2.77h5.05Z"/>
    </g>
  </g>
</svg>