<?xml version="1.0" encoding="UTF-8"?>
<svg id="_레이어_2" data-name="레이어 2" xmlns="http://www.w3.org/2000/svg" viewBox="0 0 79.84 16.11">
  <defs>
    <style>
      .cls-1 {
        fill: #fff;
        stroke-width: 0px;
      }
    </style>
  </defs>
  <g id="_레이어_1-2" data-name="레이어 1">
    <g>
      <path class="cls-1" d="M51.65,3.09v12.9h2.76V3.09h5.05V.38h-12.87v2.71h5.05Z"/>
      <rect class="cls-1" x="61.43" y=".38" width="2.76" height="15.6"/>
      <path class="cls-1" d="M2.77,8.85V2.53h4.12c.44,0,.86.07,1.23.2,1.14.41,1.73,1.3,1.73,2.65v.62c0,.5-.09.96-.27,1.37-.47.98-1.37,1.48-2.69,1.48H2.77ZM8.75,11.13l.21-.07c.61-.19,1.18-.48,1.68-.86,1.33-.99,2.01-2.41,2.01-4.21v-.62c0-1.44-.47-2.67-1.38-3.65-1.09-1.15-2.56-1.73-4.37-1.73H2.74c-.59,0-1.15.18-1.64.53C.36,1.07,0,1.79,0,2.72v13.26h2.77v-4.61h2.79l3.81,4.61h3.44l-4.07-4.85Z"/>
      <path class="cls-1" d="M26.12,4.28c-.08-2.29-1.98-4.12-4.31-4.12h-3.75c-2.38,0-4.31,1.92-4.31,4.27v.78c0,2.3,1.27,3.31,2.34,3.74,1.14.47,2.5.49,3.81.51,3.18.05,3.52.37,3.52,1.61v.77c0,.88-.72,1.6-1.61,1.6h-3.75c-.84,0-1.53-.64-1.61-1.45h-2.7c.08,2.29,1.98,4.12,4.31,4.12h3.75c2.38,0,4.31-1.91,4.31-4.27v-.77c0-2.32-1.28-3.33-2.35-3.77-1.15-.47-2.51-.49-3.83-.52-3.15-.05-3.5-.37-3.5-1.58v-.78c0-.88.72-1.6,1.61-1.6h3.75c.84,0,1.53.64,1.61,1.45h2.7Z"/>
      <path class="cls-1" d="M45.52,4.28c-.08-2.29-1.98-4.12-4.31-4.12h-3.75c-2.38,0-4.31,1.92-4.31,4.27v.78c0,2.3,1.27,3.31,2.34,3.74,1.14.47,2.5.49,3.81.51,3.18.05,3.52.37,3.52,1.61v.77c0,.88-.72,1.6-1.61,1.6h-3.75c-.84,0-1.53-.64-1.61-1.45h-2.7c.08,2.29,1.98,4.12,4.31,4.12h3.75c2.38,0,4.31-1.91,4.31-4.27v-.77c0-2.32-1.28-3.33-2.35-3.77-1.15-.47-2.51-.49-3.83-.52-3.15-.05-3.5-.37-3.5-1.58v-.78c0-.88.72-1.6,1.61-1.6h3.75c.84,0,1.53.64,1.61,1.45h2.7Z"/>
      <path class="cls-1" d="M73.12,15.99h0s0,0,0,0ZM73.11,12.67l3.62-11.11c.51-1.57,2.78-1.57,3.11,0v14.43h-2.76V7.65l-1.53,5.15c-.53,2.13-1.32,3.17-2.43,3.19h0c-1.1-.02-1.9-1.06-2.43-3.19l-1.53-5.15v8.34h-2.76V1.56c.33-1.57,2.6-1.57,3.11,0l3.62,11.11Z"/>
    </g>
  </g>
</svg>